<?xml version="1.0" encoding="UTF-8" standalone="no"?>
<!-- Uploaded to: SVG Repo, www.svgrepo.com, Generator: SVG Repo Mixer Tools -->

<svg
   height="800px"
   width="800px"
   version="1.1"
   id="Layer_1"
   viewBox="0 0 512 512"
   xml:space="preserve"
   sodipodi:docname="airplane-svgrepo-com.svg"
   inkscape:version="1.1.2 (0a00cf5339, 2022-02-04)"
   xmlns:inkscape="http://www.inkscape.org/namespaces/inkscape"
   xmlns:sodipodi="http://sodipodi.sourceforge.net/DTD/sodipodi-0.dtd"
   xmlns="http://www.w3.org/2000/svg"
   xmlns:svg="http://www.w3.org/2000/svg"><defs
   id="defs69" /><sodipodi:namedview
   id="namedview67"
   pagecolor="#ffffff"
   bordercolor="#666666"
   borderopacity="1.0"
   inkscape:pageshadow="2"
   inkscape:pageopacity="0.0"
   inkscape:pagecheckerboard="0"
   showgrid="false"
   inkscape:zoom="0.37043118"
   inkscape:cx="626.29717"
   inkscape:cy="830.11371"
   inkscape:window-width="1846"
   inkscape:window-height="1016"
   inkscape:window-x="0"
   inkscape:window-y="0"
   inkscape:window-maximized="1"
   inkscape:current-layer="Layer_1" />



<g
   id="g2581"><polygon
     style="fill:#C9E3F7;"
     points="211.478,144.696 0,278.261 0,356.174 222.609,278.261 "
     id="polygon56" /><g
     id="g62">
	<polygon
   style="fill:#78B9EB;"
   points="300.522,144.696 512,278.261 512,356.174 289.391,278.261  "
   id="polygon58" />
	<path
   style="fill:#78B9EB;"
   d="M292.263,393.023l19.389-337.371C311.652,24.917,286.736,0,256,0s-55.652,24.917-55.652,55.652   l19.389,337.371l-52.781,63.558V512L256,456.348L345.043,512v-55.418L292.263,393.023z"
   id="path60" />
</g><path
     style="fill:#a0a0a0;stroke:none;stroke-width:2.69956"
     d="m 261.85701,756.23508 v -41.52096 l 41.6503,-50.26095 41.6503,-50.26094 -1.25682,-14.19421 C 341.78466,576.09908 315.6939,113.10538 315.29347,92.34658 c -0.51425,-26.658801 5.77598,-44.220493 22.32414,-62.32682 39.71146,-43.450664 108.15122,-35.5909493 136.40951,15.665453 4.84855,8.794548 9.5438,21.549954 10.4339,28.345346 0.8901,6.795392 -0.22725,42.117871 -2.48301,78.494401 -2.25576,36.37653 -4.11377,69.35802 -4.12892,73.2922 -0.0251,6.5289 13.69357,15.80298 157.22165,106.28459 86.48705,54.52235 158.79203,100.57063 160.67773,102.32953 2.61252,2.43681 3.25504,17.07594 2.69955,61.5057 l -0.72898,58.30773 -164.67297,-57.69781 c -90.57013,-31.73378 -165.3782,-57.73629 -166.24016,-57.78337 -2.97491,-0.16251 -11.43607,175.1406 -8.62673,178.73334 1.46278,1.87065 19.84353,24.23073 40.84611,49.68906 l 38.18651,46.28787 v 40.77284 c 0,22.42506 -0.74988,40.77284 -1.66638,40.77284 -0.91652,0 -31.77791,-18.84596 -68.58088,-41.87993 l -66.91449,-41.87992 -48.17495,30.15891 c -26.49623,16.58737 -57.58966,36.04907 -69.09652,43.24819 l -20.92157,13.08932 z"
     id="path234"
     transform="scale(0.64)" /><path
     style="fill:#a0a0a0;stroke:none;stroke-width:1.72772"
     d="M -0.46551071,316.64204 0,278.261 101.93527,213.85084 c 97.10382,-61.35731 101.95544,-64.19472 102.36101,-59.8646 2.11115,22.54044 7.03196,125.60002 6.03954,126.48992 -0.70519,0.63232 -47.54175,17.30198 -104.08127,37.04368 -56.539512,19.74171 -103.7860696,36.25609 -104.9923444,36.69863 -1.739518,0.63815 -2.09692774,-7.13521 -1.72771631,-37.57643 z"
     id="path273" /><path
     style="fill:#a0a0a0;stroke:none;stroke-width:1.72772"
     d="m 161.18849,483.83651 v -25.09755 l 26.7796,-32.29682 c 14.72878,-17.76326 26.77855,-33.5139 26.77726,-35.00139 -0.001,-1.48751 -2.31487,-41.96693 -5.14129,-89.95425 C 197.94311,103.50572 195.58481,53.336359 197.5299,44.626034 203.04156,19.944136 224.83012,2.6433905 250.44685,2.6084524 c 16.40594,-0.022376 31.02667,7.1194778 40.6924,19.8772146 12.18263,16.079758 12.59825,19.171867 10.03562,74.662122 -1.87465,40.592951 -1.86599,49.237271 0.0516,51.547851 3.04774,3.6723 29.17852,20.77685 103.48985,67.74186 33.77775,21.34763 69.77191,44.24767 79.98703,50.88894 l 18.57295,12.07504 v 37.14311 c 0,34.66811 -0.20147,37.06516 -3.02351,35.97352 -2.80382,-1.08457 -113.81502,-39.87629 -177.68969,-62.09183 -15.29567,-5.3198 -28.59631,-9.67237 -29.55699,-9.67237 -2.3762,0 -3.4242,11.90066 -5.87614,66.72738 l -2.09559,46.85861 26.16473,31.75248 26.16472,31.75245 -0.18874,12.95788 c -0.10384,7.12683 -0.6753,18.24123 -1.26995,24.69865 l -1.08118,11.74076 -41.76501,-25.99441 c -22.97076,-14.29695 -42.56511,-25.99445 -43.54301,-25.99445 -0.9779,0 -19.50231,11.15115 -41.16537,24.78033 -21.66306,13.62917 -41.1367,25.70736 -43.27475,26.84039 l -3.88736,2.06007 z"
     id="path312" /><path
     style="fill:#a0a0a0;stroke:none;stroke-width:2.69956"
     d="m 251.16175,755.20102 0.10296,-39.81847 11.37015,-13.7747 c 6.25358,-7.57606 19.94505,-23.97587 30.42552,-36.44402 10.48043,-12.46812 24.22312,-29.56201 30.53927,-37.98638 l 11.48397,-15.3171 -1.5266,-21.12692 c -2.47015,-34.185 -6.8972,-111.32016 -7.6054,-132.51322 -0.39023,-11.67734 -1.74635,-19.19687 -3.35458,-18.60079 -1.48476,0.55034 -42.78798,15.12802 -91.78494,32.39487 C 16.478003,547.547 4.1924463,551.62471 0.37019805,548.50057 -2.5833598,546.08646 -3.0860847,534.87609 -2.1789295,491.65697 c 1.0385004,-49.47672 1.55505409,-54.14725 6.378694,-57.67422 4.9008175,-3.58339 67.7970535,-43.39278 206.3656655,-130.6166 31.92226,-20.09388 68.49029,-42.78957 81.26233,-50.43487 l 23.22183,-13.90055 -2.53181,-15.58243 c -1.39248,-8.57034 -2.7313,-48.98944 -2.97515,-89.82024 -0.49766,-83.32829 -0.92708,-81.13044 20.36459,-104.22919 8.97044,-9.731763 14.6931,-13.024555 32.30509,-18.588176 31.52688,-9.95934022 53.41885,-9.3641715 75.47159,2.051816 20.01451,10.360869 35.13916,28.323551 42.0054,49.887408 4.12586,12.957635 4.2096,20.54653 0.98758,89.516172 -3.39103,72.58753 -3.33455,75.55421 1.53634,80.68722 6.99107,7.36734 44.32537,31.84749 168.37997,110.40707 58.64787,37.1397 115.4398,73.23112 126.20428,80.20319 l 19.57179,12.67644 v 57.43731 57.43734 l -9.44051,-0.20247 c -5.19228,-0.11149 -9.44408,-1.2436 -9.44845,-2.51604 -0.005,-1.27241 -1.83014,-1.61425 -4.05728,-0.7596 -2.22713,0.85462 -4.04933,0.56952 -4.04933,-0.63356 0,-2.29133 -32.25652,-12.92715 -35.76913,-11.79404 -1.11357,0.35923 -2.02467,-0.69163 -2.02467,-2.33525 0,-1.6436 -1.8222,-2.28915 -4.04933,-1.43449 -2.22714,0.85462 -4.04934,0.24728 -4.04934,-1.34978 0,-1.59703 -1.8222,-2.20443 -4.04933,-1.34978 -2.22714,0.85463 -4.04934,0.47372 -4.04934,-0.84647 0,-2.14137 -13.22024,-6.57844 -20.24667,-6.79533 -1.48476,-0.0459 -3.35968,-0.96377 -4.16653,-2.03984 -0.80681,-1.07607 -3.84381,-2.32602 -6.74889,-2.77765 -2.90504,-0.45164 -6.80042,-1.7688 -8.65637,-2.92705 -1.85594,-1.15822 -3.39305,-1.1231 -3.41578,0.078 -0.0216,1.20119 -0.93383,0.86448 -2.02466,-0.74827 -2.59201,-3.83215 -19.46278,-9.57621 -22.54011,-7.67432 -1.3142,0.81224 -2.38946,0.32197 -2.38946,-1.08944 0,-2.19841 -8.18725,-5.66062 -17.54712,-7.42032 -1.48476,-0.27916 -3.91436,-0.79154 -5.39912,-1.13862 -1.48475,-0.34711 -3.61065,-0.48722 -4.72422,-0.31139 -1.11357,0.17574 -2.02467,-1.02508 -2.02467,-2.66871 0,-1.64359 -1.8222,-2.28914 -4.04933,-1.43449 -2.22714,0.85463 -4.04934,0.24728 -4.04934,-1.34977 0,-1.59704 -1.8222,-2.20444 -4.04933,-1.34978 -2.22714,0.85462 -4.04934,0.53508 -4.04934,-0.71012 0,-1.79618 -16.59372,-7.78528 -27.67046,-9.98701 -1.11356,-0.22137 -2.93576,-0.69816 -4.04933,-1.05958 -1.11357,-0.36141 -2.93577,-0.51326 -4.04934,-0.33744 -1.11356,0.17574 -2.02466,-1.02508 -2.02466,-2.6687 0,-1.6436 -1.82221,-2.28915 -4.04934,-1.43449 -2.22713,0.85462 -4.04933,0.24728 -4.04933,-1.34978 0,-1.59703 -1.82221,-2.20443 -4.04934,-1.34978 -2.22713,0.85463 -4.04934,0.53508 -4.04934,-0.71012 0,-1.79618 -16.59371,-7.78528 -27.67045,-9.98701 -1.11357,-0.22136 -2.93577,-0.69816 -4.04934,-1.05958 -1.11356,-0.36141 -2.93577,-0.51326 -4.04933,-0.33744 -1.11357,0.17574 -2.02467,-1.02508 -2.02467,-2.6687 0,-1.6436 -1.7833,-2.30407 -3.96287,-1.46767 -2.17959,0.83638 -4.69315,0.33915 -5.58565,-1.10501 -0.89253,-1.44413 -2.75363,-1.92678 -4.1358,-1.07253 -1.38215,0.85422 -2.51302,0.1366 -2.51302,-1.59458 0,-1.73122 -1.8222,-2.44847 -4.04934,-1.59381 -2.22713,0.85462 -4.04933,0.37718 -4.04933,-1.06096 0,-1.43816 -0.9111,-2.47098 -2.02467,-2.29516 -1.11357,0.17574 -2.63207,0.0745 -3.37445,-0.22487 -0.74237,-0.29957 -3.93239,-0.8367 -7.08895,-1.19367 -7.19559,-0.8137 -7.68178,3.24968 -12.12271,101.31537 l -3.25472,71.87111 40.92833,49.55117 40.9283,49.55118 v 17.8725 c 0,9.82987 -0.78138,27.1164 -1.73643,38.4145 -1.57133,18.58866 -2.19237,20.29802 -6.53112,17.976 -3.32507,-1.77952 -5.1318,-1.55465 -5.89459,0.73371 -0.71914,2.15741 -7.10291,-0.52749 -18.43978,-7.75545 -9.53694,-6.0804 -36.77669,-23.02954 -60.53279,-37.66484 -23.7561,-14.63529 -43.98139,-27.73187 -44.94513,-29.10351 -2.56728,-3.65401 -3.43478,-3.17414 -72.23658,39.9566 -42.18465,26.44491 -63.83421,38.57175 -65.1268,36.4803 -1.39865,-2.26307 -2.44892,-2.30337 -3.78278,-0.14524 -5.30532,8.58419 -6.91897,-0.12499 -6.82405,-36.8307 z"
     id="path2042"
     transform="scale(0.64)" /><path
     style="fill:#a0a0a0;stroke:none;stroke-width:2.69956"
     d="m 251.05878,754.89019 c 0,-45.69756 -3.2249,-37.71837 32.28298,-79.87597 11.19711,-13.29405 27.30507,-33.14532 35.79545,-44.11392 14.19526,-18.33863 15.33971,-20.84606 14.22669,-31.16992 -0.66571,-6.17486 -2.45711,-33.70081 -3.98088,-61.1688 -1.52376,-27.46799 -3.47962,-61.12512 -4.34637,-74.79362 l -1.57583,-24.8518 -9.88036,3.92519 c -5.43418,2.15886 -77.28531,27.52643 -159.66918,56.37236 C 44.873982,537.39211 3.1944217,550.89073 0.71142905,548.83002 -1.8263644,546.72385 -2.6306709,533.47173 -2.430465,497.06281 -2.2824645,470.14779 -1.3360433,445.17182 -0.32730695,441.56062 1.0815853,436.5169 30.588837,416.63559 126.95766,355.79891 c 68.998,-43.55772 139.62881,-87.71563 156.95737,-98.12869 31.37272,-18.85243 31.49662,-18.9673 29.179,-27.04839 -1.28016,-4.46356 -3.17743,-41.79141 -4.21619,-82.95079 -2.14758,-85.093721 -0.55104,-96.455842 16.03939,-114.14685 9.11303,-9.717576 26.02515,-22.945428 26.02515,-20.355632 0,0.763511 6.87159,-0.975969 15.27018,-3.8655108 60.35588,-20.7654662 116.9305,18.1397838 117.0401,80.4861748 0.0189,10.006177 -1.38631,44.757038 -3.11972,77.224138 l -3.1517,59.0311 12.27577,11.15738 c 12.41721,11.28594 22.84708,18.08356 204.52909,133.30072 l 101.23338,64.19911 0.7264,58.26607 0.72637,58.26608 -10.17482,-0.77767 c -5.59618,-0.42771 -10.47855,-1.00121 -10.84974,-1.27446 -0.37119,-0.27322 -1.58599,-0.75844 -2.69955,-1.07823 -1.11357,-0.31981 -6.64475,-2.64087 -12.29152,-5.15788 -5.64677,-2.51701 -14.15037,-5.31143 -18.8969,-6.20984 -4.74652,-0.89839 -10.14855,-2.82606 -12.00449,-4.28369 -1.85595,-1.45762 -3.37445,-1.74534 -3.37445,-0.63936 0,1.10598 -1.8222,0.49858 -4.04933,-1.34978 -2.22714,-1.84836 -4.04934,-2.53561 -4.04934,-1.52725 0,1.00837 -2.69991,-0.0578 -5.99979,-2.36902 -3.29986,-2.3113 -8.5235,-4.2024 -11.6081,-4.2024 -3.08456,0 -6.78833,-1.18003 -8.23062,-2.62232 -1.44227,-1.44227 -5.63333,-3.17419 -9.31347,-3.84873 -3.68012,-0.67451 -6.99485,-1.46853 -7.36604,-1.76446 -0.37119,-0.29592 -1.58599,-0.79769 -2.69956,-1.11502 -1.11356,-0.31736 -6.26443,-2.48654 -11.44636,-4.82044 -5.18196,-2.33388 -10.34273,-3.67421 -11.46839,-2.9785 -1.12566,0.6957 -4.74871,-0.62765 -8.05119,-2.94082 -3.3025,-2.31314 -9.10833,-4.20572 -12.90185,-4.20572 -3.79353,0 -9.43765,-1.7793 -12.5425,-3.95401 -3.10484,-2.17474 -6.41215,-3.18707 -7.34957,-2.24965 -0.93742,0.93742 -1.70439,0.21542 -1.70439,-1.6044 0,-1.81985 -1.21267,-2.55934 -2.69483,-1.6433 -1.48214,0.91601 -5.39685,-0.22704 -8.69932,-2.54026 -3.30251,-2.31314 -8.02433,-4.20572 -10.49296,-4.20572 -7.42767,0 -32.10402,-8.7376 -32.10402,-11.36762 0,-1.34683 -1.26801,-1.66514 -2.8178,-0.70731 -1.54982,0.95783 -4.44234,0.39327 -6.42786,-1.25456 -1.98553,-1.64784 -10.67003,-4.83496 -19.29886,-7.08248 -8.62884,-2.24754 -17.46363,-5.55939 -19.63286,-7.35967 -2.1692,-1.8003 -4.36472,-2.96956 -4.87888,-2.59837 -0.51418,0.37118 -1.23858,0.58461 -1.60977,0.47428 -0.37119,-0.11041 -3.65917,-0.7484 -7.30659,-1.41794 -3.64746,-0.66955 -7.29186,-2.12401 -8.09867,-3.23215 -0.80685,-1.10817 -5.24975,-2.36649 -9.87317,-2.79631 -8.37327,-0.77845 -8.41263,-0.72003 -10.04603,14.90587 -0.90192,8.62805 -3.07387,47.32666 -4.82659,85.99689 l -3.18672,70.30953 40.90323,49.73701 40.90322,49.73701 v 21.95909 c 0,12.07749 -0.77552,29.37884 -1.72337,38.44746 -1.54023,14.73613 -2.23431,16.21495 -6.53111,13.91536 -3.30426,-1.7684 -5.14034,-1.5753 -5.87124,0.61747 -1.17077,3.51225 -8.52896,-0.31739 -50.66364,-26.36833 -14.10518,-8.72092 -26.05072,-16.80166 -26.54563,-17.95724 -0.49494,-1.15554 -2.0775,-2.10098 -3.5168,-2.10098 -1.43932,0 -12.86314,-6.67843 -25.38628,-14.84095 L 394.2044,714.046 328.97096,754.70435 c -43.92824,27.37937 -65.87113,39.6265 -67.18601,37.49898 -1.40757,-2.27748 -2.46804,-2.3254 -3.79915,-0.17169 -5.29793,8.5723 -6.92702,-0.16262 -6.92702,-37.14145 z"
     id="path2081"
     transform="scale(0.64)" /><path
     style="fill:#ff0000;stroke:none;stroke-width:2.69956;fill-opacity:1"
     d="m 251.05878,754.6566 v -39.79174 l 10.12334,-13.71124 c 5.56784,-7.54118 22.54624,-28.86701 37.72976,-47.39072 15.18355,-18.52374 29.0035,-36.74572 30.71102,-40.49332 2.3345,-5.12368 2.34657,-18.41487 0.0486,-53.5838 -1.68072,-25.72349 -3.8216,-63.16979 -4.75749,-83.214 -0.93588,-20.04421 -1.84004,-36.54002 -2.00928,-36.65734 -0.16923,-0.11732 -23.9963,8.22182 -52.94905,18.5314 C 120.47856,511.57212 3.9123281,551.31939 0.7981399,550.12435 -4.1428352,548.22832 -4.2571163,444.38457 0.6748892,438.1304 2.5308345,435.77693 16.197341,426.03088 31.044903,416.47251 73.346351,389.24027 266.14801,268.27206 290.74645,253.52978 l 22.14055,-13.26922 -1.82328,-18.8969 c -1.0028,-10.3933 -1.85505,-52.39388 -1.89387,-93.33462 l -0.0706,-74.437727 7.86052,-10.598314 c 10.20665,-13.761628 21.63849,-24.507812 31.49217,-29.603342 4.33924,-2.243922 7.88956,-3.5601517 7.88956,-2.924955 0,0.635197 5.65967,-0.5484073 12.57704,-2.6302315 15.1571,-4.5616177 43.72945,-4.925783 57.71502,-0.7356001 25.04349,7.5032076 51.57984,38.1218346 55.58541,64.1365186 1.05442,6.84798 0.45277,44.463401 -1.33698,83.589821 l -3.2541,71.13895 7.48293,6.93496 c 13.74509,12.7385 41.83794,31.3833 161.43303,107.14059 65.32928,41.3827 125.76561,79.94346 134.30296,85.69058 l 15.52245,10.44931 v 57.90087 57.90091 l -11.97348,-1.1224 c -6.58541,-0.61731 -14.24564,-2.33844 -17.02276,-3.8247 -2.77711,-1.48624 -18.95175,-7.17607 -35.94365,-12.64403 -16.9919,-5.46795 -41.22018,-13.87674 -53.84061,-18.68622 -12.62043,-4.80945 -30.23504,-10.91517 -39.14358,-13.5683 -8.90853,-2.65309 -18.62694,-5.86837 -21.59645,-7.14505 -6.91427,-2.97262 -67.1931,-24.21443 -103.93294,-36.62518 -34.55333,-11.67213 -45.52216,-14.37201 -47.2211,-11.62303 -1.37648,2.22719 -5.34445,64.35676 -8.27944,129.63755 l -1.761,39.16823 40.77878,49.54572 40.77877,49.54575 v 26.3153 c 0,14.47343 -0.74478,31.749 -1.65504,38.39018 -1.55854,11.37073 -2.14887,12.07717 -10.12334,12.11462 -7.4443,0.0348 -24.37665,-8.06428 -43.3518,-20.73635 -3.33493,-2.22714 -12.94651,-8.11341 -21.35911,-13.0806 -8.4126,-4.96718 -15.29564,-9.84353 -15.29564,-10.83629 0,-0.99276 -4.5555,-3.9194 -10.12334,-6.50363 -12.13877,-5.63406 -17.834,-9.11476 -30.44649,-18.60773 -7.72761,-5.8163 -10.55823,-6.63386 -14.85822,-4.29151 -2.9216,1.5915 -32.03759,19.43371 -64.70222,39.64936 -35.44816,21.9383 -62.38301,36.88464 -66.81404,37.0755 l -7.42378,0.31976 z"
     id="path2120"
     transform="scale(0.64)" /></g></svg>
